<svg viewBox="0 0 110 210" xmlns="http://www.w3.org/2000/svg">
  <defs>
    <mask id="mask-0">
      <ellipse style="stroke: rgb(0, 0, 0); fill: rgb(239, 180, 19);" cx="46.242" cy="118.638" rx="36.304" ry="54.39"></ellipse>
    </mask>
  </defs>
  <g transform="matrix(1.560836, 0, 0, 1.560836, -0.00335, -0.001785)">
    <ellipse style="stroke: rgb(0, 0, 0); fill: rgb(239, 180, 19);" cx="46.242" cy="118.638" rx="36.304" ry="54.39"></ellipse>
    <ellipse style="fill: rgba(0, 0, 0, 0.5); mask: url(#mask-0); filter: blur(1px);" cx="47.575" cy="44.573" rx="35.559" ry="36.229"></ellipse>
    <ellipse style="stroke: rgb(0, 0, 0); fill: rgb(239, 180, 19); paint-order: fill;" cx="107.03" cy="179.745" rx="45.741" ry="36.229" transform="matrix(0.99863, 0.052336, -0.052336, 0.99863, -49.901498, -146.526832)"></ellipse>
    <ellipse style="stroke: rgb(0, 0, 0); fill: rgb(255, 255, 255);" cy="175" rx="15" ry="10" cx="85" transform="matrix(0.99863, 0.052336, -0.052336, 0.99863, -50.018516, -146.554667)"></ellipse>
    <ellipse style="" cx="90" cy="175" rx="0.796" ry="3.411" transform="matrix(0.99863, 0.052336, -0.052336, 0.99863, -50.173303, -145.642222)"></ellipse>
    <ellipse style="stroke: rgb(0, 0, 0); fill: rgb(255, 255, 255);" cx="130" cy="175" rx="15" ry="10" transform="matrix(0.99863, 0.052336, -0.052336, 0.99863, -50.01821, -146.554666)"></ellipse>
    <ellipse style="" cx="135" cy="175" rx="0.796" ry="3.411" transform="matrix(0.99863, 0.052336, -0.052336, 0.99863, -50.172997, -145.642221)"></ellipse>
    <path style="stroke: rgb(0, 0, 0); fill: none;" d="M 75.279 52.898 C 64.043 68.308 33.279 69.4 22.942 56.016 C 22.624 55.605 21.458 54.324 21.199 53.873"></path>
  </g>
</svg>
